<svg width="259" height="61" viewBox="0 0 259 61" fill="none" xmlns="http://www.w3.org/2000/svg">
<path d="M27.3692 43.9238V47.1302H1.63867V43.9238H12.3835V42.2344C7.18569 41.8594 4.18385 40.2072 4.18385 37.4096C4.18385 34.2639 7.98819 32.5205 14.4855 32.5205C20.9827 32.5205 24.8206 34.2639 24.8206 37.4096C24.8206 40.241 21.7986 41.8932 16.4665 42.2344V43.9238H27.3692ZM8.64967 57.6382H24.9852V60.7196H4.59686V53.185H20.2205V51.6949H4.56664V48.6541H24.2431V56.0197H8.64967V57.6382ZM14.4955 39.3017C18.6424 39.3017 20.5932 38.7408 20.5932 37.4028C20.5932 36.1256 18.6424 35.5344 14.4955 35.5344C10.3487 35.5344 8.43141 36.1256 8.43141 37.4028C8.43141 38.7543 10.3823 39.3017 14.4955 39.3017Z" fill="#010100"/>
<path d="M34.672 50.9753C38.4135 50.9992 42.15 50.6973 45.8399 50.0732L46.2126 53.4047C41.9415 54.1818 38.0129 54.3676 33.0636 54.3676H30.6494V42.542H39.6851V37.9604H30.6191V34.6931H43.7144V45.7754H34.672V50.9753ZM55.9266 46.4613H51.8435V60.99H47.7605V32.2334H51.8435V43.0657H55.9266V46.4613Z" fill="#010100"/>
<path d="M72.1114 32.7335H75.9191V59.6621H72.1114V46.1471H69.8852C69.5125 51.7491 67.199 55.1143 63.727 55.1143C59.9529 55.1143 57.5723 51.1916 57.5723 44.6841C57.5723 38.1766 59.9529 34.2843 63.727 34.2843C67.1016 34.2843 69.3916 37.4603 69.8549 42.8157H72.1114V32.7335ZM66.2017 44.6875C66.2017 40.2951 65.3052 38.1496 63.727 38.1496C62.1489 38.1496 61.2524 40.2951 61.2524 44.6875C61.2524 49.0799 62.1825 51.2558 63.727 51.2558C65.2716 51.2558 66.2017 49.1069 66.2017 44.6875ZM81.7649 60.9055H77.8968V32.2334H81.7649V60.9055Z" fill="#010100"/>
<path d="M110.977 51.6614H105.127V60.9699H101.075V51.6614H95.1952V60.9699H91.1121V51.6614H85.1387V48.3603H110.977V51.6614ZM108.005 45.529H88.4192V33.6357H107.696V36.903H92.5862V42.2347H107.995L108.005 45.529Z" fill="#010100"/>
<path d="M148.012 45.093V48.3163H122.365V45.0795H131.861V40.0789H135.947V45.093H148.012ZM145.134 55.5671C145.134 58.8986 141.175 60.9528 135.017 60.9528C128.859 60.9528 124.944 58.8986 124.944 55.5671C124.944 52.2357 128.906 50.1611 135.017 50.1611C141.128 50.1611 145.134 52.2188 145.134 55.5671ZM140.155 43.1738C140.685 41.0895 140.935 38.9427 140.897 36.7914H125.239V33.541H144.98V35.9061C144.98 38.18 144.98 40.6094 144.174 43.5658L140.155 43.1738ZM141.081 55.5671C141.081 54.0095 138.885 53.229 135.017 53.229C131.149 53.229 128.973 54.0095 128.973 55.5671C128.973 57.1247 131.173 57.868 135.017 57.868C138.862 57.868 141.081 57.0909 141.081 55.5671Z" fill="#010100"/>
<path d="M175.957 51.5666H165.004V60.9393H160.917V51.5666H150.152V48.3163H175.957V51.5666ZM172.861 45.2484H153.121V33.666H172.861V45.2484ZM168.855 36.9029H157.143V42.0082H168.855V36.9029Z" fill="#010100"/>
<path d="M202.597 57.1718V60.4391H181.466V51.9077H185.425V48.0796C182.92 48.2046 180.536 48.235 178.401 48.235L177.877 44.9678C183.075 44.934 190.005 44.8732 196.009 44.0961L196.284 47.0221C194.032 47.4175 191.76 47.6882 189.478 47.833V53.239H185.549V57.1617L202.597 57.1718ZM179.935 38.3657C179.935 35.3248 182.873 33.23 187.054 33.23C191.234 33.23 194.139 35.3147 194.139 38.3657C194.139 41.4167 191.197 43.471 187.054 43.471C182.91 43.471 179.935 41.4167 179.935 38.3657ZM183.803 38.3657C183.803 39.7679 185.147 40.4842 187.054 40.4842C188.961 40.4842 190.27 39.7679 190.27 38.3657C190.27 36.9635 188.927 36.2202 187.054 36.2202C185.18 36.2202 183.803 36.9669 183.803 38.3657ZM197.879 48.9209V32.2637H201.965V53.9958H197.893V51.7219H192.54V48.9209H197.879Z" fill="#010100"/>
<path d="M222.619 38.024H205.83V34.8007H212.17V32.0977H216.286V34.8007H222.629L222.619 38.024ZM214.224 49.4813C210.141 49.4813 207.234 47.3325 207.234 44.1868C207.234 41.0412 210.141 38.9261 214.224 38.9261C218.308 38.9261 221.235 41.075 221.235 44.1868C221.235 47.2987 218.358 49.4813 214.241 49.4813H214.224ZM209.292 51.4106H228.287V60.9691H224.197V54.7117H209.282L209.292 51.4106ZM214.241 46.3661C216.068 46.3661 217.337 45.6498 217.337 44.1868C217.337 42.7238 216.068 42.0413 214.241 42.0413C212.415 42.0413 211.149 42.7542 211.149 44.1868C211.149 45.6194 212.388 46.3661 214.241 46.3661ZM232.064 43.0381H228.287V50.2281H224.197V32.2632H228.287V39.6424H232.061L232.064 43.0381Z" fill="#010100"/>
<path d="M258.295 57.1718V60.4391H237.162V51.9077H241.124V48.0796C238.616 48.2046 236.235 48.235 234.099 48.235L233.572 44.9678C238.77 44.934 245.7 44.8732 251.704 44.0961L251.983 47.0221C249.731 47.4173 247.458 47.688 245.177 47.833V53.239H241.245V57.1617L258.295 57.1718ZM235.647 38.3657C235.647 35.3248 238.585 33.23 242.762 33.23C246.939 33.23 249.847 35.3147 249.847 38.3657C249.847 41.4167 246.909 43.471 242.762 43.471C238.616 43.471 235.647 41.4167 235.647 38.3657ZM239.515 38.3657C239.515 39.7679 240.859 40.4842 242.762 40.4842C244.666 40.4842 245.979 39.7679 245.979 38.3657C245.979 36.9635 244.636 36.2202 242.762 36.2202C240.889 36.2202 239.515 36.9669 239.515 38.3657ZM253.591 48.9209V32.2637H257.674V53.9958H253.591V51.7219H248.239V48.9209H253.591Z" fill="#010100"/>
<path d="M201.704 8.48695C201.704 13.2645 199.521 17.4711 194.062 20.1639L193.256 18.9205C197.671 16.8021 199.871 13.6294 200.183 9.69992H194.005V8.48695H201.704ZM206.526 23.2453H205.021V6.68945H206.526V23.2453Z" fill="#010100"/>
<path d="M218.077 15.7554V17.8603H222.932V23.2663H221.431V19.0767H211.549V17.8603H216.586V15.7554H209.9V14.5289H224.765V15.7452L218.077 15.7554ZM223.355 13.2281C220.806 12.8395 218.389 11.488 217.341 9.61279C216.334 11.4948 213.879 12.8057 211.331 13.2281L210.763 12.032C213.695 11.6265 216.572 9.79862 216.572 7.65987V6.91992H218.113V7.65987C218.113 9.76145 221.008 11.6265 223.906 12.032L223.355 13.2281Z" fill="#010100"/>
<path d="M237.067 15.8803C233.655 16.4513 229.717 16.556 226.799 16.556L226.654 15.3194C227.699 15.3194 228.891 15.2991 230.136 15.2822V11.6805H231.62V15.2045C233.417 15.1302 235.287 15.0018 236.956 14.7619L237.067 15.8803ZM233.914 13.6131C234.21 12.175 234.358 10.7098 234.354 9.24102H227.638V7.99088H235.811V8.85922C235.838 10.5047 235.698 12.1486 235.391 13.7652L233.914 13.6131ZM230.667 21.6545H240.089V22.8912H229.166V18.0258H230.667V21.6545ZM241.922 12.0994V13.353H239.572V19.1678H238.067V6.7002H239.572V12.0859L241.922 12.0994Z" fill="#010100"/>
<path d="M246.082 18.0058C248.757 18.0322 251.43 17.8355 254.073 17.4179L254.221 18.6545C251.483 19.0974 248.711 19.2998 245.938 19.2593H244.595V12.9174H250.638V9.46093H244.527V8.23106H252.153V14.1506H246.082V18.0058ZM257.116 23.2631H255.618V6.68359H257.119L257.116 23.2631Z" fill="#010100"/>
<path d="M13.1283 25.4458C5.81172 25.4458 0.294922 20.1817 0.294922 13.2046C0.294922 6.22744 5.81172 0.959961 13.1283 0.959961C20.4448 0.959961 25.965 6.22406 25.965 13.2046C25.965 20.1851 20.4415 25.4458 13.1283 25.4458ZM13.1283 6.7106C9.43474 6.7106 6.83583 9.37981 6.83583 13.2046C6.83583 17.0293 9.42466 19.6951 13.1283 19.6951C16.8319 19.6951 19.4341 17.0259 19.4341 13.2046C19.4341 9.38319 16.8352 6.7106 13.1283 6.7106Z" fill="#EDBA22"/>
<path d="M0.966797 13.2045C0.966797 6.55175 6.10752 1.62891 13.1286 1.62891C20.1497 1.62891 25.3005 6.52134 25.3005 13.2045C25.3005 19.8877 20.106 24.7767 13.1286 24.7767C6.15117 24.7767 0.966797 19.8539 0.966797 13.2045ZM20.106 13.2045C20.106 8.95066 17.1176 6.04156 13.1454 6.04156C9.17316 6.04156 6.17132 8.95066 6.17132 13.2045C6.17132 17.4584 9.15637 20.3641 13.1286 20.3641C17.1008 20.3641 20.106 17.455 20.106 13.2045Z" fill="#073B87"/>
<path d="M32.5396 0H26.2539V25.0636H32.5396V0Z" fill="#EDBA22"/>
<path d="M31.874 0.668945H26.918V24.3945H31.874V0.668945Z" fill="#073B87"/>
<path d="M40.1978 0H33.9121V25.0636H40.1978V0Z" fill="#EDBA22"/>
<path d="M39.5342 0.668945H34.5781V24.3945H39.5342V0.668945Z" fill="#073B87"/>
<path d="M47.5083 25.3172C43.291 25.3172 40.457 22.9521 40.457 19.4382C40.457 17.2656 41.4979 13.62 48.4619 13.62H51.6686C51.4268 12.2414 50.3658 11.5691 48.4485 11.5691C46.8318 11.556 45.2535 12.0653 43.9457 13.0219L43.3178 13.5152L40.9036 8.78496L41.3737 8.44709C43.2977 7.06518 46.1988 6.24414 49.1301 6.24414C54.9491 6.24414 58.0248 9.11608 58.0248 14.5559V25.03H52.0547V23.9893C50.94 24.8577 49.3987 25.3071 47.5083 25.3071V25.3172ZM49.0025 17.8569C46.6185 17.8569 46.6185 18.7996 46.6185 19.2084C46.6185 20.516 48.247 20.6174 48.7473 20.6174C50.1912 20.6174 51.2724 19.9653 51.7391 18.8266V17.8671L49.0025 17.8569Z" fill="#EDBA22"/>
<path d="M57.3771 14.5798V24.3951H52.7199V22.2529C51.7999 23.8173 50.0337 24.6519 47.5086 24.6519C43.5062 24.6519 41.1289 22.4117 41.1289 19.4384C41.1289 16.3976 43.2577 14.2892 48.469 14.2892H52.411C52.411 12.1471 51.1384 10.9105 48.469 10.9105C46.6975 10.8936 44.9678 11.4516 43.5364 12.5019L41.7602 9.01837C43.6338 7.66687 46.3972 6.94043 49.1472 6.94043C54.3551 6.93705 57.3771 9.36638 57.3771 14.5798ZM52.421 18.9722V17.1983H49.0028C46.6826 17.1983 45.954 18.0633 45.954 19.2256C45.954 20.4723 47.0016 21.3035 48.7477 21.3035C50.3997 21.3035 51.8301 20.5365 52.4043 18.9688" fill="#073B87"/>
<path d="M68.0344 25.253C62.3262 25.253 58.2969 21.4147 58.2969 15.9208C58.2969 10.5317 62.1314 6.61914 67.4165 6.61914C72.7016 6.61914 76.422 10.4743 76.422 16.0155C76.422 16.377 76.3683 16.8737 76.3549 17.0291L76.2877 17.6237H62.8567C63.4745 19.847 65.4724 21.2424 68.1485 21.2424C69.955 21.2424 71.4257 20.6274 72.5136 19.4145L73.0206 18.8502L75.5658 21.8472L75.173 22.2695C73.5142 24.2224 71.0396 25.253 68.0277 25.253H68.0344ZM72.0335 14.0693C71.7525 13.0568 71.1499 12.1646 70.3178 11.529C69.4856 10.8935 68.4696 10.5494 67.4249 10.5494C66.3802 10.5494 65.3642 10.8935 64.5321 11.529C63.6999 12.1646 63.0974 13.0568 62.8164 14.0693H72.0335Z" fill="#073B87"/>
<path d="M75.6935 16.9446H62.0308C62.4136 19.9348 64.7942 21.9012 68.1218 21.9012C70.0928 21.9012 71.7448 21.2254 72.9838 19.8537L74.6627 21.837C73.1383 23.6244 70.818 24.5839 68.021 24.5839C62.5882 24.5839 58.9551 20.972 58.9551 15.9208C58.9551 10.8696 62.5714 7.28809 67.4502 7.28809C72.329 7.28809 75.7573 10.8121 75.7573 16.0154C75.7516 16.326 75.7303 16.6361 75.6935 16.9446ZM62.0308 14.7382H72.8226C72.6777 13.3987 72.0463 12.1602 71.0495 11.2604C70.0527 10.3606 68.7608 9.86295 67.4217 9.86295C66.0826 9.86295 64.7906 10.3606 63.7939 11.2604C62.7971 12.1602 62.1656 13.3987 62.0207 14.7382" fill="#EDBA22"/>
<path d="M85.3442 25.2528C79.9382 25.2528 76.1641 21.4145 76.1641 15.9207C76.1641 10.4268 79.9382 6.61898 85.3442 6.61898C87.2313 6.57705 89.0745 7.19567 90.5588 8.36917V0H94.9238V25.0636H90.683V23.4148C89.18 24.6519 87.2852 25.3042 85.3442 25.2528ZM85.5994 10.6431C82.5774 10.6431 80.5627 12.7615 80.5627 15.9207C80.5627 19.0798 82.6277 21.2321 85.5994 21.2321C88.571 21.2321 90.589 19.046 90.589 15.9207C90.589 12.7953 88.5374 10.6431 85.5994 10.6431Z" fill="#073B87"/>
<path d="M94.2717 0.675781V24.3946H91.3471V21.6916C89.9838 23.6108 87.8214 24.5669 85.3434 24.5669C80.4176 24.5669 76.8281 21.0834 76.8281 15.9038C76.8281 10.7242 80.4176 7.27111 85.3434 7.27111C87.7274 7.27111 89.8226 8.16648 91.2228 9.97411V0.675781H94.2717ZM91.2497 15.9275C91.2497 12.3122 88.8019 9.98087 85.5952 9.98087C82.3886 9.98087 79.9072 12.3122 79.9072 15.9275C79.9072 19.5427 82.3516 21.9045 85.5952 21.9045C88.8388 21.9045 91.2497 19.5394 91.2497 15.9275Z" fill="#EDBA22"/>
<path d="M14.0918 9.02148L21.63 13.4003L14.0918 17.7826V9.02148Z" fill="#EDBA22"/>
<path d="M20.2995 13.4006L14.7559 10.1807V16.6239L20.2995 13.4006Z" fill="#073B87"/>
<path d="M103.489 25.0942C98.4524 25.0942 95.5781 22.158 95.5781 17.0392V6.61914H99.9432V16.6878C99.9432 19.553 101.249 21.0059 103.825 21.0059C106.712 21.0059 108.371 19.1982 108.371 16.0492V6.61914H112.736V24.9016H108.542V23.371C107.109 24.5204 105.322 25.1299 103.489 25.0942Z" fill="#073B87"/>
<path d="M112.109 7.28809V24.2325H109.218V21.6748C107.979 23.4351 105.88 24.4251 103.51 24.4251C99.1446 24.4251 96.2637 22.0262 96.2637 17.0392V7.28809H99.3125V16.6878C99.3125 20.0125 100.965 21.6748 103.859 21.6748C107.035 21.6748 109.07 19.6949 109.07 16.0492V7.28809H112.109Z" fill="#EDBA22"/>
<path d="M186.852 16.0117H118.951V16.9274H186.852V16.0117Z" fill="#010100"/>
</svg>
